<svg xmlns="http://www.w3.org/2000/svg" width="461.25" height="258.667" xml:space="preserve"><path fill="none" d="M314.879 129.247c-4.429 0-7.265 3.285-7.265 7.315 0 4.23 2.687 7.714 6.967 7.714 4.13 0 7.564-3.037 7.564-7.466.001-4.478-3.185-7.563-7.266-7.563zM364.646 86.422c4.578 0 7.364-2.936 7.364-7.713 0-3.931-2.985-7.017-7.315-7.017-4.479 0-7.414 3.284-7.414 7.465-.001 4.08 3.134 7.265 7.365 7.265zM317.066 79.057c0-4.278-2.886-7.463-7.215-7.463-4.679 0-7.366 3.482-7.366 7.365 0 4.229 2.837 7.662 7.067 7.662 4.827 0 7.514-3.334 7.514-7.564zM258.542 128.451c-3.136 0-4.877 1.493-6.021 4.329h11.596c-1.096-2.936-2.689-4.329-5.575-4.329zM416.257 128.451c-3.136 0-4.877 1.493-6.022 4.329h11.597c-1.097-2.936-2.689-4.329-5.575-4.329z"/><path fill="#FFCD1A" d="m175.262 83.21-24.712 4.08-.678-4.091.908-.149c1.094-12.387.661-27.29-1.958-45.229 0 0-.062-.004-.181-.004-1.632 0-14.141.826-27.891 25.22 0 0-10.427-8.562-23.043-8.562-1.646 0-3.327.146-5.029.475 0 0-2.381-19.507-9.992-28.546 0 0-15.562 13.161-25.498 32.875l.672.415-2.18 3.527-17.532-10.828-1.386.652 17.414 14.097-.874 1.079a74.989 74.989 0 0 0-1.409 4.226l-.261 1.188-.081-.018c-1.227 4.353-2.051 8.896-2.33 13.584v-.866H45.17L14.817 98.132v1.676l28.023-9.926h6.381v4.146h-.001c.911 15.312 8.155 31.831 26.803 47.992l-.949 21.887s-3.332 18.079.476 18.079c3.806 0 8.089-39.489 8.089-39.489s1.712-.66 3.336-.66c1.461 0 2.847.533 2.847 2.563 0 4.282 1.979 40.306.91 49.481-2.096 18.009-7.093 45.647 2.423 45.647 9.517 0 4.758-55.64 4.758-55.64s3.806-36.159 3.806-38.062v-1.902l.122.001c1.642 0 19.326-.393 33.095-16.76l-.91-.75 2.636-3.202 19.191 15.798.379-3.211-18.206-15.845 2.725-3.128.722.629a66.335 66.335 0 0 0 2.317-4.814l-.688-.173 1.01-4.021 20.654 5.191-.446-2.127-18.043-6.289 1.365-3.916.048.017c.208-.786.405-1.594.598-2.409l-.933-3.948 28.439-6.721-.532-5.036zM84.591 67.403a4.047 4.047 0 1 1-.003 8.093 4.047 4.047 0 0 1 .003-8.093zm30.127 47.163c-2.162 1.521-4.916 2.157-7.57 2.157-2.11 0-4.158-.402-5.801-1.081-5.578-2.309-8.845-5.75-9.881-10.41-2.723 2.271-5.637 3.422-8.783 3.422-2.697 0-5.562-.832-8.617-2.49-3.831-2.079-5.465-5.578-5.465-11.701a2.073 2.073 0 1 1 4.146 0c0 5.783 1.628 7.152 3.297 8.056 6.17 3.354 10.721 2.477 15.187-2.921.02-.175.033-.346.057-.523-1.627-1.719-5.604-6.458-5.032-11.209 0 0-.954-3.092 5.709-1.427 6.662 1.665 10.944 3.33 10.944 3.33s2.854-.237-1.903 4.997L96.247 100l-.888-.05c-.667 5.807 1.665 9.416 7.573 11.86 2.572 1.064 6.897 1.125 9.4-.636 1.312-.923 1.908-2.211 1.827-3.941a2.072 2.072 0 0 1 1.974-2.169c1.122-.079 2.115.829 2.169 1.973.148 3.127-1.125 5.8-3.584 7.529zm-1.582-28.677a5.396 5.396 0 0 1 0-10.791 5.396 5.396 0 1 1 0 10.791z"/><circle cx="84.591" cy="71.449" r="4.046"/><circle cx="113.136" cy="80.494" r="5.395"/><path d="M116.134 105.064a2.073 2.073 0 0 0-1.974 2.169c.081 1.73-.516 3.019-1.827 3.941-2.503 1.761-6.828 1.7-9.4.636-5.908-2.444-8.24-6.054-7.573-11.86l.888.05 4.758-5.234c4.757-5.234 1.903-4.997 1.903-4.997s-4.282-1.665-10.944-3.33c-6.663-1.665-5.709 1.427-5.709 1.427-.572 4.751 3.405 9.49 5.032 11.209-.023.178-.037.349-.057.523-4.466 5.397-9.017 6.274-15.187 2.921-1.669-.903-3.297-2.272-3.297-8.056a2.073 2.073 0 1 0-4.146 0c0 6.123 1.634 9.622 5.465 11.701 3.055 1.658 5.92 2.49 8.617 2.49 3.146 0 6.061-1.15 8.783-3.422 1.036 4.66 4.303 8.102 9.881 10.41 1.643.679 3.69 1.081 5.801 1.081 2.654 0 5.408-.636 7.57-2.157 2.459-1.729 3.732-4.402 3.585-7.529-.054-1.143-1.047-2.052-2.169-1.973z"/><path fill="#FFCD1A" d="M49.221 80.807h.001l2.24-7.211-24.111-5.293-1.385 3.538 23.838 6.975zM52.073 71.626l.006-.018h-.002z"/><path d="m180.299 91.442-1.374-13.04-22.586 3.729c1.027-13.261.326-28.305-2.126-45.098l-.616-4.239-4.387-.411s-.193-.019-.568-.019c-3.682 0-16.107 1.749-29.622 22.954-4.817-2.815-12.548-6.295-21.312-6.296-.152 0-.308.001-.46.004-1.315-6.959-4.337-18.944-10.39-26.136l-3.52-4.178-4.172 3.526c-.965.816-16.448 14.121-26.648 34.155l-14.104-8.71-9.402 4.423 18.8 15.22c-.132.376-.253.759-.38 1.138l-22.653-4.973-4.324 11.056 23.87 6.986c-.034.239-.069.479-.101.72L10.67 95.293v10.381l32.883-11.646h.195c.98 18.248 9.953 35.162 26.718 50.349l-.824 18.92c-3.085 17.034-.144 20.564.826 21.73 1.273 1.532 3.128 2.41 5.081 2.41 5.551 0 7.179-6.438 8.153-10.283.52-2.056 1.053-4.572 1.597-7.525.311 9.756.479 19.665.016 23.624-.27 2.339-.591 4.829-.931 7.467-2.657 20.661-3.982 34.678 1.587 41.007 1.844 2.1 4.396 3.254 7.183 3.254 2.247 0 4.381-.974 6.002-2.74 2.664-2.898 5.681-9.369 5.375-33.867-.141-11.428-.945-21.956-1.146-24.421 1.165-11.072 2.926-27.985 3.552-35.015 7.229-1.082 20.562-4.821 31.675-17.671.181-.209.352-.427.529-.639l19.939 16.41 1.525-12.927-14.914-12.98a70.407 70.407 0 0 0 3.479-7.135l21.014 5.284-2.294-10.911-15.02-5.236c.482-1.793.92-3.633 1.314-5.52l26.115-6.171zM25.966 71.841l1.385-3.538 24.111 5.293-2.24 7.211h-.001l.583-1.99-23.838-6.976zm122.319 27.075c-.192.815-.39 1.623-.598 2.409l-.048-.017-1.365 3.916 18.043 6.289.446 2.127-20.654-5.191-1.01 4.021.688.173a66.551 66.551 0 0 1-2.317 4.814l-.722-.629-2.725 3.128 18.206 15.845-.379 3.211-19.191-15.798-2.636 3.202.91.75c-13.769 16.367-31.453 16.76-33.095 16.76l-.122-.001v1.902c0 1.903-3.806 38.062-3.806 38.062s4.759 55.64-4.758 55.64c-9.516 0-4.519-27.639-2.423-45.647 1.068-9.176-.91-45.199-.91-49.481 0-2.03-1.386-2.563-2.847-2.563-1.624 0-3.336.66-3.336.66s-4.283 39.489-8.089 39.489c-3.808 0-.476-18.079-.476-18.079l.949-21.887C57.373 125.86 50.128 109.34 49.217 94.029h.001v-4.146h-6.381l-28.023 9.926v-1.676l30.354-11.798h4.051v.865c.279-4.688 1.104-9.231 2.33-13.584l.081.018.261-1.188c.43-1.431.901-2.84 1.409-4.226l.874-1.079-17.411-14.096 1.386-.652 17.532 10.828 2.18-3.527-.672-.415c9.936-19.715 25.498-32.875 25.498-32.875 7.611 9.039 9.992 28.546 9.992 28.546a26.448 26.448 0 0 1 5.029-.475c12.616 0 23.043 8.562 23.043 8.562 13.75-24.395 26.259-25.22 27.891-25.22.118 0 .181.004.181.004 2.619 17.938 3.052 32.842 1.958 45.229l-.908.149.678 4.091 24.712-4.08.53 5.037-28.439 6.721.931 3.948zm-96.212-27.29.004-.018h.002l-.006.018zM220.171 86.771c-3.633 0-7.116-2.04-8.958-3.682-.846 1.442-3.981 7.713-3.981 7.713 3.981 2.489 7.764 4.729 13.139 4.729 7.663 0 15.227-4.281 15.227-12.441 0-5.723-2.936-9.207-8.658-11.495-.995-.399-2.937-1.195-4.13-1.643-1.991-.748-4.33-1.443-4.33-3.483 0-1.991 1.394-3.336 3.832-3.336 3.683 0 7.663 3.037 7.663 3.037l3.882-7.466c-2.737-1.79-7.266-4.08-12.192-4.08-6.768 0-13.088 4.529-13.088 12.143 0 5.375 2.638 8.808 7.465 10.998 1.643.746 4.479 1.842 5.673 2.289 3.732 1.394 3.981 2.14 3.981 3.732-.002 2.039-2.738 2.985-5.525 2.985zM250.478 94.136V72.04h4.926v-8.459h-4.926v-7.563h-9.305v7.563h-3.036v8.41h3.036v22.145zM288.351 81.694V63.581h-9.058v17.766c0 3.085-1.841 5.025-5.175 5.025-3.136 0-5.225-1.94-5.225-5.274V63.581h-9.257v17.766c0 8.46 5.623 13.536 14.382 13.536 8.809 0 14.333-4.679 14.333-13.189zM316.768 90.951v3.185h9.058V56.018h-9.207v10.45s-3.533-3.483-8.857-3.483c-9.008 0-14.68 7.812-14.68 16.122 0 8.511 5.274 15.776 13.884 15.776 4.03 0 6.966-1.146 9.802-3.932zm-14.283-11.992c0-3.883 2.688-7.365 7.366-7.365 4.329 0 7.215 3.185 7.215 7.463 0 4.23-2.688 7.564-7.514 7.564-4.23 0-7.067-3.433-7.067-7.662zM337.623 61.392c3.185 0 5.723-2.538 5.723-5.673 0-3.086-2.538-5.524-5.624-5.524-3.084 0-5.573 2.538-5.573 5.622-.001 3.136 2.438 5.575 5.474 5.575zM333.045 63.581h9.257v30.555h-9.257zM364.546 95.182c9.953 0 16.671-7.017 16.671-16.323 0-9.206-7.216-15.874-16.472-15.874-9.406 0-16.721 6.866-16.721 16.023 0 8.51 7.166 16.174 16.522 16.174zm.148-23.49c4.33 0 7.315 3.086 7.315 7.017 0 4.777-2.786 7.713-7.364 7.713-4.23 0-7.365-3.185-7.365-7.265 0-4.18 2.936-7.465 7.414-7.465zM208.477 113.721v8.559h15.625l-17.119 29.56 32.446.05v-8.311h-16.62l17.217-29.858zM258.642 120.688c-9.008 0-15.626 6.669-15.626 15.925 0 10.252 6.469 15.975 15.874 15.975 6.42 0 11.596-3.185 14.283-7.962-1.692-1.046-7.216-4.231-7.216-4.231-1.593 2.09-3.584 4.231-6.618 4.231-3.484 0-6.37-1.743-7.166-5.376h21.498c.049-.696 0-1.095 0-1.842 0-10.898-6.221-16.72-15.029-16.72zm-6.121 12.092c1.145-2.836 2.886-4.329 6.021-4.329 2.886 0 4.479 1.393 5.574 4.329h-11.595zM286.411 126.112v-4.827h-9.007v30.555h9.355v-14.084c0-5.921 2.189-8.11 5.772-8.11 2.091 0 3.234.597 3.234.597v-9.555h-2.089c-3.681 0-6.519 3.134-7.265 5.424zM321.847 124.42c-2.737-2.488-5.076-3.732-8.809-3.732-8.51 0-14.83 7.514-14.83 16.023 0 9.805 5.823 15.876 14.332 15.876 5.823 0 9.157-3.734 9.157-3.734v2.987h9.306v-30.555h-9.156v3.135zm-7.266 19.856c-4.28 0-6.967-3.483-6.967-7.714 0-4.03 2.836-7.315 7.265-7.315 4.081 0 7.267 3.085 7.267 7.563 0 4.429-3.435 7.466-7.565 7.466zM356.535 120.688c-5.972 0-8.907 4.578-8.907 4.578v-3.98h-9.257v30.555h9.355v-17.467c0-2.937 2.487-5.374 5.475-5.374 4.08 0 4.777 2.387 4.777 4.925v17.916h9.555v-21c0-5.775-4.927-10.153-10.998-10.153zM382.364 137.109c0-4.081 2.986-7.812 7.018-7.812 2.737 0 5.723 1.394 6.768 2.488v-9.605c-2.538-1.144-4.28-1.492-7.116-1.492-9.456 0-15.925 7.315-15.925 16.173 0 8.958 6.32 15.727 15.775 15.727 2.937 0 7.414-1.743 7.414-1.743v-8.857c-.945.746-3.931 2.04-6.519 2.04-4.08-.002-7.415-2.789-7.415-6.919zM416.356 120.688c-9.008 0-15.626 6.669-15.626 15.925 0 10.252 6.469 15.975 15.874 15.975 6.42 0 11.596-3.185 14.283-7.962-1.693-1.046-7.217-4.231-7.217-4.231-1.592 2.09-3.583 4.231-6.617 4.231-3.484 0-6.37-1.743-7.166-5.376h21.498c.049-.696 0-1.095 0-1.842.001-10.898-6.22-16.72-15.029-16.72zm-6.122 12.092c1.146-2.836 2.887-4.329 6.022-4.329 2.886 0 4.479 1.393 5.574 4.329h-11.596zM441.19 141.787c-3.135 0-5.723 2.588-5.723 5.723 0 3.136 2.588 5.724 5.723 5.724s5.723-2.588 5.723-5.724c0-3.135-2.588-5.723-5.723-5.723z"/></svg>